<svg width="421" height="333" viewBox="0 0 421 333" fill="none" xmlns="http://www.w3.org/2000/svg">
<g clip-path="url(#clip0_721_5597)">
<path d="M131.537 63.4557C50.9261 76.8381 11.0383 152.923 5.91313 206.608C-0.34834 272.143 26.8079 306.781 77.4794 302.285C132.418 297.4 195.612 290.748 263.793 302.285C331.996 313.823 383.016 324.399 408.062 254.161C433.108 183.923 400.177 50.1253 307.901 26.6087C239.93 9.27664 215.487 49.5277 131.537 63.4557Z" fill="#ECF0F7"/>
<path d="M319.41 323.203C319.41 323.203 319.995 275.391 306.293 261.203C292.59 247.015 255.758 183.585 285.548 167.968C315.338 152.351 324.293 209.648 343.395 229.059C362.498 248.47 346.32 321.436 346.32 321.436L319.41 323.203Z" fill="#DAE1F0"/>
<path d="M337.65 332.74L336.322 332.584C336.367 332.012 341.212 275.573 332.473 250.237C328.424 238.518 320.371 227.266 311.808 215.339C301.498 200.969 290.856 186.132 285.303 168.202L286.542 167.682C292.007 185.352 302.582 200.086 312.804 214.352C321.432 226.357 329.552 237.712 333.69 249.665C342.584 275.339 337.716 332.194 337.65 332.74Z" fill="#B5C4E2"/>
<path d="M306.541 211.051C308.298 207.206 308.201 198.968 308.103 190.237C308.005 181.844 307.908 172.334 309.958 169.969L308.363 169.085C305.988 171.866 306.085 180.805 306.183 190.263C306.281 198.475 306.346 206.946 304.719 210.532L306.541 211.051Z" fill="#B5C4E2"/>
<path d="M313.236 219.133C312.214 217.678 305.842 214.507 299.123 211.155C285.445 204.373 274.899 198.812 273.833 194.577L275.073 194.135C276.052 198.033 289.686 204.789 299.623 209.726C307.93 213.858 313.084 216.456 314.236 218.145L313.236 219.133Z" fill="#B5C4E2"/>
<path d="M328.644 241.012C328.2 239.141 327.9 232.177 327.469 220.9C327.097 211.155 326.677 200.138 326.113 197.955L326.737 197.175C327.385 199.644 327.768 209.908 328.188 220.77C328.524 229.527 328.86 238.57 329.28 240.285L328.644 241.012Z" fill="#B5C4E2"/>
<path d="M334.563 258.604C332.35 254.421 321.462 251.147 311.845 248.262C301.986 245.3 292.675 242.52 290.419 238.57L291.492 237.686C293.486 241.142 302.994 244.001 312.173 246.755C322.974 250.003 333.183 253.07 335.68 257.773L334.563 258.604Z" fill="#B5C4E2"/>
<path d="M337.145 298.492C336.255 289.345 327.146 284.122 320.5 280.302C318.161 278.977 316.153 277.807 314.993 276.716L315.739 275.469C316.795 276.456 318.761 277.573 321.018 278.873C327.539 282.615 337.394 288.279 338.367 298.284L337.145 298.492Z" fill="#B5C4E2"/>
<path d="M341.414 283.186L340.315 283.082C340.48 279.704 342.678 272.454 345.004 264.763C347.477 256.552 350.298 247.249 350.096 243.975L351.195 243.845C351.433 247.483 348.796 256.188 346.03 265.361C343.832 272.61 341.579 280.068 341.414 283.186Z" fill="#B5C4E2"/>
<path d="M334.172 320.995C350.217 294.88 331.761 208.297 368.313 173.191C404.843 138.085 430.601 158.328 407.209 208.115C383.817 257.903 375.862 316.421 363.175 321.826C350.488 327.231 334.172 320.995 334.172 320.995Z" fill="#DAE1F0"/>
<path d="M347.561 333L346.249 332.714C346.316 332.298 353.033 290.774 367.401 236.075C376.832 200.164 388.442 183.247 396.116 172.048C400.386 165.811 403.478 161.29 404.657 156.093L405.947 156.483C404.701 161.991 401.543 166.617 397.161 173.009C389.554 184.105 378.055 200.891 368.691 236.517C354.345 291.164 347.628 332.61 347.561 333Z" fill="#B5C4E2"/>
<path d="M376.704 215.001L375.682 214.014C379.812 207.855 388.399 203.074 396.724 198.423C405.202 193.693 413.223 189.224 414.636 184.209L415.875 184.702C414.266 190.341 406.028 194.941 397.289 199.826C389.094 204.425 380.639 209.154 376.704 215.001Z" fill="#B5C4E2"/>
<path d="M370.279 236.543L371.488 236.101C370.576 232.437 370.703 221.497 370.831 209.934C371.064 188.34 371 172.801 368.033 169.761L367.206 170.956C369.94 173.763 369.728 193.823 369.559 209.908C369.432 222.095 369.305 232.619 370.279 236.543Z" fill="#B5C4E2"/>
<path d="M360.398 272.584L359.144 272.169C360.636 265.698 368.923 258.812 377.708 251.562C385.432 245.17 393.438 238.544 395.623 232.749L396.813 233.399C394.498 239.583 386.341 246.339 378.465 252.862C370.243 259.618 361.762 266.66 360.398 272.584Z" fill="#B5C4E2"/>
<path d="M354.681 284.823L353.669 284.434C354.768 277.911 351.295 257.747 348.763 243.039C346.896 232.229 345.848 225.993 346.075 224.122L347.105 224.382C346.913 226.019 348.31 234.1 349.776 242.649C352.482 258.37 355.833 277.911 354.681 284.823Z" fill="#B5C4E2"/>
<path d="M351.161 314.057L349.917 313.719C350.571 310.029 356.183 306.339 362.683 302.078C368.738 298.102 375.596 293.606 376.736 289.579L377.938 290.098C376.63 294.672 369.836 299.141 363.273 303.455C357.597 307.197 351.689 311.068 351.161 314.057Z" fill="#B5C4E2"/>
<path d="M122.045 235.452C122.045 235.452 122.002 209.518 121.527 188.003C121.052 166.487 137.98 142.814 141.953 130.549C145.927 118.258 141.759 99.4711 156.097 91.1559C156.097 91.1559 147.676 109.242 155.298 118.622C162.92 128.003 153.16 160.276 151.649 174.127C150.137 187.925 141.457 224.59 122.045 235.452Z" fill="#DAE1F0"/>
<path d="M97.2933 278.145C97.2933 278.145 86.4336 220.198 69.3749 195.59C52.3162 170.982 53.4701 174.724 28.5607 168.696C3.67399 162.667 5.03144 183.637 5.03144 183.637C5.03144 183.637 18.968 174.542 26.9996 186.547C35.0539 198.553 37.3616 214.377 53.1307 239.245C68.8998 264.113 97.2933 278.145 97.2933 278.145Z" fill="#DAE1F0"/>
<path d="M45.4848 102.329C50.3865 123.325 87.5596 134.395 96.0988 156.716C104.638 179.038 100.956 233.035 100.956 233.035C100.956 233.035 77.734 209.57 76.1593 188.834C74.5845 168.098 62.4966 159.861 53.1368 138.761C43.7992 117.635 45.4848 102.329 45.4848 102.329Z" fill="#DAE1F0"/>
<path d="M111.543 330.999L110.202 331.103C110.179 330.505 106.714 271.259 100.723 233.191L100.254 230.202C94.4195 193.07 90.9099 170.644 73.2054 150.766C55.0091 130.289 44.9498 102.927 44.8604 102.641L46.0898 102.044C46.1792 102.303 56.1492 129.406 74.1443 149.648C92.1394 169.865 95.6937 192.472 101.573 229.917L102.042 232.905C108.056 271.051 111.52 330.401 111.543 330.999Z" fill="#DAE1F0"/>
<path d="M108.83 311.276C107.275 292.281 92.9422 270.064 77.7875 246.547C68.7659 232.541 59.4331 218.093 51.6113 202.788L52.7446 201.983C60.5219 217.21 69.8325 231.632 78.8319 245.586C94.1199 269.284 108.541 291.683 110.141 311.12L108.83 311.276Z" fill="#B5C4E2"/>
<path d="M108.791 277.496C107.14 261.307 113.107 249.38 118.862 237.868C122.522 230.54 126.309 222.979 128.086 214.378C132.614 192.472 136.041 151.052 136.063 150.636L137.332 150.792C137.29 151.208 133.862 192.732 129.313 214.741C127.494 223.576 123.643 231.242 119.941 238.674C114.038 250.497 108.452 261.645 110.039 277.288L108.791 277.496Z" fill="#B5C4E2"/>
<path d="M180.004 249.198C180.004 249.198 174.965 303.247 170.633 309.483C166.324 315.72 151.732 318.838 151.732 327.153C151.732 335.469 273.03 334.429 273.942 327.153C274.854 319.877 262.405 314.68 257.685 309.483C252.965 304.286 247.493 249.198 247.493 249.198H180.004Z" fill="#273B63"/>
<path d="M171.141 320.657L171.073 319.098C171.593 319.072 222.566 316.006 257.308 319.098L257.195 320.657C222.543 317.591 171.66 320.631 171.141 320.657Z" fill="#C8F2E9"/>
<path d="M78.5145 56.076C69.6398 60.0777 68.2531 252.94 78.422 263.334C88.591 273.728 340.965 271.649 344.663 263.334C348.361 255.018 356.265 64.833 341.797 54.4389C327.33 44.0448 100.1 46.3055 78.5145 56.076Z" fill="#273B63"/>
<path d="M86.9499 67.1716C79.9772 72.7844 82.3323 223.836 86.9499 230.073C91.5676 236.309 327.069 236.309 333.534 230.073C339.999 223.836 338.152 73.6939 333.534 67.1716C328.916 60.6493 94.3382 61.221 86.9499 67.1716Z" fill="#DAE1F0"/>
<path d="M240.213 234.75C240.213 234.75 240.213 214.482 243.346 207.206C246.479 199.93 258.563 176.023 263.486 151.078C268.409 126.132 262.591 63.7675 255.877 63.7675C249.164 63.7675 249.611 110.021 249.611 110.021C249.611 110.021 250.059 51.8144 242.003 51.8144C233.947 51.8144 233.499 106.383 233.499 106.383C233.499 106.383 233.947 41.4203 224.548 41.4203C215.15 41.4203 215.597 105.864 215.597 105.864C215.597 105.864 215.217 52.8538 206.445 52.8538C197.672 52.8538 199.485 133.928 197.247 157.834C195.01 181.74 206.445 234.75 206.445 234.75H240.213Z" fill="white"/>
<path d="M260.306 164.07C261.537 159.835 262.611 155.469 263.484 151.078C264.58 145.517 265.14 138.111 265.274 129.952C244.307 133.927 210.967 149.077 197.429 155.469C197.362 156.301 197.295 157.08 197.228 157.808C197.138 158.769 197.071 159.809 197.026 160.848C209.02 165.785 237.751 175.192 260.306 164.07Z" fill="#ECF0F7"/>
<path d="M115.85 8.15926C112.146 14.8634 111.318 145.361 115.85 154.118C120.382 162.875 295.477 157.106 303.23 145.751C310.982 134.395 306.45 24.9197 303.23 11.0436C300.009 -2.7805 122.314 -3.50809 115.85 8.15926Z" fill="#B5C4E2"/>
<path d="M210.14 119.142C192.527 119.142 118.51 13.1484 115.36 8.62698L116.441 7.66553C117.2 8.7569 193.171 117.583 210.14 117.583C227.109 117.583 301.908 11.6672 302.643 10.6019L303.724 11.5633C300.62 15.9548 227.753 119.142 210.14 119.142Z" fill="#3D5C9B"/>
<path d="M116.364 154.664L115.384 153.598C115.718 153.183 149.387 110.515 175.796 89.3889L176.553 90.6882C150.277 111.71 116.698 154.248 116.364 154.664Z" fill="#3D5C9B"/>
<path d="M302.702 146.322C273.82 109.969 248.218 86.4005 247.974 86.1667L248.794 84.9454C249.06 85.1792 274.729 108.826 303.677 145.283L302.702 146.322Z" fill="#3D5C9B"/>
<path d="M195.635 101.446C186.852 101.446 193.263 124.573 190.629 135.487C187.994 146.4 180.09 156.275 182.285 174.464C184.481 192.654 196.776 204.607 199.411 212.922C202.046 221.238 199.411 234.75 199.411 234.75H228.832C228.832 234.75 227.076 221.757 226.198 194.733C225.319 167.708 207.82 162.511 205.361 158.354C202.924 154.196 209.95 143.282 209.511 129.25C209.072 115.218 200.223 101.446 195.635 101.446Z" fill="white"/>
<path d="M212.523 261.021C212.336 261.021 212.148 261.021 211.961 260.995C207.989 260.553 206.696 256.37 206.79 252.94C206.902 248.86 208.888 244.65 212.017 244.65C214.978 244.65 217.189 246.08 218.275 248.652C219.231 250.965 219.156 254.005 218.088 256.604C216.907 259.358 214.828 261.021 212.523 261.021ZM212.017 246.183C209.581 246.183 208.008 249.639 207.914 252.992C207.839 255.876 208.869 259.098 212.055 259.436C212.205 259.462 212.373 259.462 212.523 259.462C214.434 259.462 216.139 258.085 217.095 255.772C217.975 253.667 218.05 251.225 217.282 249.38C216.42 247.327 214.547 246.183 212.017 246.183Z" fill="#C8F2E9"/>
<path d="M98.4546 4.1583C121.999 8.65374 124.781 26.8434 124.329 50.0221C123.899 73.2009 136.18 88.3243 144.504 88.3243C144.504 88.3243 133.534 92.8717 125.211 88.3243C116.865 83.7769 108.542 96.3797 87.0554 90.3511C65.5689 84.2966 46.2537 66.3668 55.4816 35.2625C64.6868 4.1583 82.6676 1.11804 98.4546 4.1583Z" fill="#7BE1C9"/>
<path d="M87.4244 40.6666C87.4244 40.6666 95.0764 21.7494 102.728 31.286C110.38 40.8226 91.5055 57.583 87.9345 68.2369C87.9345 68.2369 68.0395 44.8243 76.2015 31.286C84.3636 17.7477 87.4244 40.6666 87.4244 40.6666Z" fill="white"/>
<path d="M262.81 108.67C262.81 108.67 270.462 89.7527 278.114 99.2892C285.766 108.826 266.891 125.586 263.32 136.24C263.32 136.24 243.425 112.827 251.587 99.2892C259.749 85.751 262.81 108.67 262.81 108.67Z" fill="#65BAA6"/>
<path d="M273.77 72.8624C296.895 77.3059 299.63 95.1577 299.2 117.947C298.771 140.736 310.842 155.599 319.025 155.599C319.025 155.599 308.242 160.069 300.059 155.599C291.876 151.13 283.671 163.525 262.558 157.574C241.445 151.623 222.48 133.98 231.522 103.421C240.586 72.8624 258.263 69.9001 273.77 72.8624Z" fill="white"/>
<path d="M262.81 108.67C262.81 108.67 270.462 89.7528 278.114 99.2894C285.766 108.826 266.891 125.586 263.32 136.24C263.32 136.24 243.425 112.828 251.587 99.2894C259.749 85.7511 262.81 108.67 262.81 108.67Z" fill="#7BE1C9"/>
<path d="M191.741 305.141C191.592 306.77 191.363 308.365 191.044 309.915C186.961 329.672 168.646 343.37 135.969 345.859C69.9886 350.879 33.6371 346.417 20.6896 311.275C17.7615 303.332 16.6258 293.069 16.786 281.857C17.3242 243.414 32.9995 193.705 43.5972 187.446C57.2911 179.358 67.0013 183.542 67.0013 183.542C89.1608 188.84 124.516 261.632 152.154 264.421C179.79 267.211 193.674 283.475 191.741 305.141Z" fill="#95E7D4"/>
<path d="M46.5828 231.791C46.5828 231.791 63.0159 246.572 68.7423 263.027C74.4688 279.481 74.4688 293.984 86.42 296.772C98.3711 299.561 120.78 301.235 143.438 293.704C166.096 286.174 166.594 277.249 142.692 272.509C118.789 267.769 92.6462 242.389 85.1769 224.26C77.7077 206.131 77.956 198.881 73.2258 194.141C68.4957 189.4 61.523 187.726 54.5519 196.929C47.5808 206.131 43.5955 221.472 46.5828 231.791Z" fill="#65BAA6"/>
<path d="M96.5291 182.453C96.8158 182.015 97.1698 181.62 97.4421 181.177C98.6627 179.191 97.3252 176.939 95.8018 175.777C94.7671 174.987 94.6133 174.359 94.8664 172.911C95.0666 171.767 95.6465 171.008 95.4494 169.814C95.2861 168.819 94.8968 167.396 94.2016 166.748C93.4904 166.084 92.4428 166.138 91.6227 165.747C89.5884 164.776 91.4785 162.96 90.6104 161.258C89.3097 158.708 85.5919 159.32 83.3798 158.943C83.3958 158.947 83.407 158.941 83.4102 158.923C81.5104 158.077 81.1789 155.841 78.7425 156.295C77.5924 156.508 76.7947 157.318 75.8352 157.951C74.1709 159.051 72.7694 157.54 71.1579 158.218C69.3367 158.986 67.8838 160.825 67.3712 162.926C66.6584 165.851 65.1463 164.995 63.088 166.045C61.9955 166.603 60.6356 166.992 60.8631 168.706C60.9848 169.621 61.7056 170.406 61.7633 171.313C61.8354 172.47 60.8583 173.127 60.2832 173.988C59.6649 174.915 59.2613 176.268 59.6793 177.381C60.1294 178.583 61.3901 179.173 61.4493 180.637C61.531 182.677 58.9697 184.349 60.0141 186.578C60.7045 188.051 62.2006 188.051 63.1953 188.993C63.8633 189.626 63.7688 190.572 63.6919 191.419C63.482 193.741 64.4447 195.8 66.8747 195.264C68.6447 194.873 69.9373 194.648 71.1948 196.355C72.292 197.844 73.37 198.581 75.2249 198.406C76.4039 198.292 77.4963 197.745 78.624 197.392C79.6812 197.06 80.0064 197.257 80.9546 197.586C82.9553 198.278 84.1134 196.141 85.9731 196.168C86.6875 196.179 87.1569 196.782 87.8857 196.918C88.7314 197.076 89.6557 196.764 90.3797 196.287C91.3312 195.659 91.7813 194.914 92.1049 193.749C92.3836 192.745 92.5838 192.388 93.4504 191.979C95.6465 190.94 96.8414 189.802 96.6973 186.928C96.6396 185.79 95.9172 184.879 96.0277 183.761C96.0789 183.251 96.2792 182.835 96.5291 182.453Z" fill="#1C2A47"/>
<path d="M96.8782 218.591C96.8782 218.591 110.739 234.952 116.382 236.533L107.335 242.947L95.3004 235.417C95.302 235.417 90.8202 222.03 96.8782 218.591Z" fill="#B5C4E2"/>
<path d="M96.8787 218.591L96.7617 218.714C96.7633 218.716 100.23 222.809 104.406 227.101C106.493 229.247 108.758 231.445 110.858 233.206C111.908 234.087 112.916 234.859 113.843 235.464C114.771 236.066 115.615 236.502 116.344 236.707L116.382 236.533L116.297 236.382L107.332 242.739L95.3809 235.261L95.3025 235.417L95.453 235.354C95.453 235.354 95.4466 235.336 95.4354 235.302C95.2624 234.773 93.8656 230.323 93.8672 226.076C93.8672 224.546 94.0482 223.044 94.5256 221.763C95.0029 220.482 95.7686 219.425 96.9523 218.75L96.8787 218.591L96.7617 218.714L96.8787 218.591L96.8066 218.431C95.5475 219.145 94.7258 220.283 94.2292 221.625C93.7311 222.967 93.5469 224.513 93.5469 226.076C93.5485 230.696 95.1503 235.471 95.1535 235.482L95.1743 235.543L107.343 243.157L116.786 236.461L116.422 236.359C115.74 236.169 114.917 235.747 114.005 235.153C110.813 233.075 106.552 228.899 103.1 225.247C101.373 223.421 99.8468 221.725 98.7528 220.487C98.2049 219.868 97.766 219.362 97.4633 219.012C97.3127 218.836 97.1958 218.7 97.1157 218.609C97.0372 218.515 96.9956 218.467 96.9956 218.467L96.9139 218.37L96.8082 218.431L96.8787 218.591Z" fill="#3D5C9B"/>
<path d="M104.222 253.684C104.222 253.684 126.34 249.826 139.953 256.706C153.563 263.585 149.913 275.113 145.596 284.966C141.279 294.82 137.297 298.54 137.297 298.54L128.998 294.636C128.998 294.636 131.985 277.903 136.965 269.534C136.965 269.534 117.545 281.062 107.086 280.504C96.6298 279.946 96.7948 258.006 96.7948 258.006L104.222 253.684Z" fill="#1C2A47"/>
<path d="M72.4586 200.79C72.4586 200.79 66.7513 204.181 62.436 206.04C58.1207 207.899 56.7928 215.058 59.282 220.263C61.7713 225.47 67.9959 238.763 70.6517 246.665C73.3075 254.567 74.8437 261.075 74.8437 261.075C74.8437 261.075 89.3257 264.189 97.3764 260.935C105.427 257.682 104.224 253.684 104.224 253.684C104.224 253.684 99.0375 233.278 98.2894 227.793C98.2894 227.793 100.53 222.122 98.7043 217.103C96.8782 212.083 92.1481 210.038 89.8238 206.969C87.4996 203.903 78.4958 199.909 72.4586 200.79Z" fill="white"/>
<path d="M90.0753 179.661C89.8862 182.449 89.6668 185.25 90.0048 189.144C90.2739 192.323 88.9092 194.844 84.9655 198.414C84.9655 198.414 83.5206 198.56 81.8884 198.023C81.858 198.023 81.8291 198.013 81.7987 198.002L82.1671 201.059L82.2472 201.707L82.2969 202.175C82.2969 202.175 82.3561 204.138 80.3042 204.696C78.2427 205.254 74.0107 203.022 72.4569 200.792C72.4569 200.792 72.7052 192.425 72.0789 189.145C72.0789 189.145 70.1567 185.587 69.0915 180.713C68.0359 175.827 71.302 171.074 74.3406 169.323C77.3889 167.582 86.5913 167.527 89.3897 174.644C89.3881 174.641 90.2659 176.871 90.0753 179.661Z" fill="#B5C4E2"/>
<path d="M90.0756 179.661L89.9154 179.647C89.7984 181.376 89.6687 183.117 89.6687 185.125C89.6687 186.352 89.7168 187.678 89.8465 189.16C89.8673 189.411 89.8785 189.657 89.8785 189.899C89.8769 191.282 89.5293 192.547 88.73 193.889C87.9291 195.23 86.6733 196.64 84.8664 198.274L84.9674 198.414L84.9529 198.235H84.9465C84.9113 198.239 84.7463 198.251 84.4868 198.251C83.939 198.251 82.9731 198.19 81.9351 197.849L81.9127 197.842H81.8903V197.86L81.8919 197.842H81.8903V197.86L81.8919 197.842L81.8823 197.84L81.8518 197.83L81.6083 197.738L82.012 201.079L82.0921 201.727L82.2507 201.701L82.0921 201.723L82.1418 202.191L82.3003 202.17L82.1402 202.173V202.175V202.186C82.1402 202.265 82.1273 202.731 81.8903 203.228C81.7717 203.478 81.5971 203.734 81.3392 203.962C81.0798 204.19 80.7354 204.389 80.2708 204.515C80.069 204.57 79.8383 204.597 79.5885 204.596C78.5281 204.597 77.1056 204.108 75.7906 203.367C74.4739 202.627 73.2565 201.637 72.5869 200.673L72.4604 200.785L72.6205 200.79C72.6205 200.788 72.6686 199.148 72.6686 197.035C72.6686 195.703 72.6494 194.184 72.5853 192.766C72.5212 191.347 72.4155 190.034 72.2377 189.101L72.2313 189.072L72.2169 189.047C72.2169 189.047 72.2105 189.034 72.1961 189.007C71.9862 188.607 70.2402 185.207 69.2471 180.662C69.111 180.036 69.0485 179.412 69.0485 178.794C69.0485 176.754 69.7373 174.799 70.756 173.162C71.7732 171.528 73.1203 170.218 74.413 169.473C74.9031 169.194 75.5727 168.953 76.356 168.784C77.1393 168.616 78.0395 168.519 78.9926 168.519C80.8907 168.519 83.0019 168.906 84.8616 169.874C86.7214 170.842 88.328 172.385 89.241 174.707L89.2426 174.711C89.2795 174.806 89.9426 176.566 89.941 178.857C89.941 179.112 89.933 179.374 89.9154 179.641L90.0756 179.661L90.2357 179.675C90.255 179.399 90.263 179.128 90.263 178.864C90.263 176.421 89.5405 174.583 89.5357 174.569C88.5875 172.154 86.9104 170.548 84.9978 169.554C83.0836 168.558 80.9292 168.165 78.9926 168.165C78.0203 168.165 77.1024 168.264 76.2967 168.438C75.491 168.612 74.7974 168.858 74.2688 169.161C72.9217 169.938 71.5441 171.282 70.4949 172.965C69.4473 174.646 68.7313 176.67 68.7297 178.802C68.7297 179.446 68.7954 180.099 68.9364 180.754C70.008 185.657 71.9382 189.228 71.943 189.237L72.0807 189.144L71.9238 189.181C72.0952 190.077 72.2025 191.381 72.2649 192.79C72.3274 194.198 72.3466 195.712 72.3466 197.04C72.3466 198.093 72.3338 199.03 72.3226 199.703C72.3162 200.038 72.3098 200.309 72.3066 200.496C72.3018 200.682 72.2986 200.783 72.2986 200.783L72.297 200.847L72.3322 200.899C73.0514 201.931 74.296 202.936 75.6448 203.693C76.9935 204.45 78.4416 204.958 79.5869 204.96C79.8576 204.96 80.1122 204.931 80.3445 204.868C80.8491 204.732 81.2383 204.509 81.5347 204.249C81.98 203.858 82.2122 203.381 82.3308 202.986C82.4493 202.591 82.4589 202.277 82.4589 202.19V202.168V202.159L82.4076 201.68L82.3276 201.032L81.9592 197.977L81.8006 198L81.7493 198.17C81.7797 198.181 81.823 198.201 81.8903 198.203V198.023L81.8454 198.196C82.925 198.549 83.9198 198.612 84.4884 198.612C84.796 198.612 84.9786 198.594 84.9834 198.594L85.0314 198.588L85.0699 198.554C86.8895 196.907 88.1694 195.477 88.9991 194.09C89.8289 192.703 90.2037 191.354 90.2021 189.901C90.2021 189.646 90.1909 189.389 90.1685 189.129C90.0403 187.658 89.9923 186.345 89.9923 185.128C89.9923 183.138 90.1204 181.409 90.2389 179.677L90.0756 179.661Z" fill="#3D5C9B"/>
<path d="M72.7999 184.852C72.7999 184.852 72.8175 184.873 72.8512 184.915C72.9649 185.056 73.2516 185.424 73.5079 185.844C73.7658 186.262 73.99 186.736 73.9884 187.071C73.9884 187.123 73.9836 187.172 73.9724 187.217C73.9003 187.515 73.7514 187.685 73.6136 187.855C73.4759 188.024 73.3477 188.198 73.3477 188.487C73.3477 188.625 73.3765 188.788 73.4454 188.988C73.7882 190.001 74.0077 190.421 74.0093 190.423C74.0205 190.445 74.0445 190.452 74.0637 190.439C74.0829 190.427 74.0894 190.4 74.0781 190.378C74.0781 190.378 74.0653 190.353 74.0397 190.299C73.9628 190.136 73.777 189.712 73.5207 188.955C73.455 188.762 73.4294 188.609 73.4294 188.485C73.4294 188.23 73.5367 188.085 73.6745 187.915C73.8106 187.746 73.974 187.559 74.0509 187.24C74.0637 187.186 74.0701 187.131 74.0701 187.071C74.0685 186.643 73.7642 186.081 73.463 185.616C73.1619 185.153 72.8608 184.793 72.8592 184.793C72.8447 184.775 72.8191 184.773 72.8031 184.791C72.7855 184.805 72.7839 184.834 72.7999 184.852Z" fill="#273B63"/>
<path d="M89.1375 180.707C89.1375 180.707 87.955 180.289 86.3672 181.544C86.3672 181.544 86.6476 180.113 87.5817 179.939C88.5158 179.767 89.1375 180.707 89.1375 180.707Z" fill="#273B63"/>
<path d="M82.7581 181.976C82.7581 181.976 81.9105 180.824 80.6704 181.027C79.4302 181.23 78.4929 181.772 78.4929 181.772C78.4929 181.772 79.0377 180.417 80.2474 180.111C81.4587 179.808 82.4264 180.587 82.7581 181.976Z" fill="#273B63"/>
<path d="M86.7886 184.228C86.7454 184.93 86.9104 185.513 87.1587 185.533C87.4071 185.552 87.6442 185 87.6891 184.298C87.7324 183.596 87.5673 183.013 87.319 182.993C87.0706 182.975 86.8319 183.528 86.7886 184.228Z" fill="#273B63"/>
<path d="M81.3423 185.066C81.2991 185.767 81.4641 186.351 81.7125 186.37C81.9608 186.39 82.1979 185.837 82.2428 185.136C82.2861 184.434 82.121 183.851 81.8727 183.831C81.6227 183.811 81.3856 184.364 81.3423 185.066Z" fill="#273B63"/>
<path d="M85.2847 185.193C85.2847 185.193 85.3744 185.369 85.5106 185.645C85.7141 186.06 86.0185 186.704 86.2733 187.325C86.528 187.944 86.7283 188.549 86.7283 188.861C86.7283 188.953 86.7107 189.016 86.6834 189.044C86.5921 189.147 86.4127 189.26 86.198 189.367C85.8759 189.527 85.4722 189.678 85.1485 189.785C84.9867 189.839 84.8457 189.884 84.7448 189.915C84.6438 189.945 84.5845 189.963 84.5845 189.963C84.5637 189.968 84.5509 189.994 84.5557 190.017C84.5605 190.04 84.5829 190.055 84.6038 190.049C84.6038 190.049 85.0348 189.927 85.517 189.75C85.7574 189.66 86.0105 189.558 86.23 189.45C86.4495 189.34 86.6338 189.227 86.7395 189.109C86.7908 189.051 86.8084 188.965 86.8084 188.861C86.8084 188.628 86.7155 188.287 86.5793 187.896C86.1707 186.729 85.3552 185.148 85.3552 185.148C85.344 185.126 85.32 185.119 85.3007 185.132C85.2815 185.143 85.2735 185.171 85.2847 185.193Z" fill="#273B63"/>
<path d="M84.8173 191.726C84.8173 191.726 84.7724 191.733 84.6891 191.74C84.6058 191.747 84.4872 191.755 84.3414 191.755C83.7823 191.755 82.8305 191.645 82.023 191.012C82.0054 190.997 81.9798 191.003 81.967 191.022C81.9541 191.042 81.959 191.071 81.9766 191.085C82.8049 191.733 83.7727 191.844 84.3398 191.844C84.6379 191.844 84.8253 191.814 84.8269 191.814C84.8493 191.81 84.8638 191.787 84.8606 191.764C84.859 191.74 84.8381 191.722 84.8173 191.726Z" fill="#273B63"/>
<path d="M76.9598 176.85C76.9598 176.85 77.6438 178.314 77.2705 181.59C76.8973 184.866 76.7099 183.682 76.4616 185.146C76.2133 186.61 76.8973 187.726 76.0259 188.91C75.1545 190.096 76.4616 185.772 73.7225 183.192C70.9834 180.612 71.669 188.212 72.353 189.677C73.037 191.141 74.1582 191.699 74.1582 191.699L72.4154 193.999C72.4154 193.999 64.0123 189.537 64.448 180.124C64.8837 170.712 69.8013 168.131 69.8013 168.131C69.8013 168.131 73.9099 161.647 84.3041 164.645C94.6999 167.643 93.4248 177.183 93.3303 178.59C93.0821 182.286 89.8448 182.354 89.8448 182.354C89.8448 182.354 90.1555 178.45 87.9146 176.148C87.9146 176.148 87.2915 177.752 85.113 178.38C82.9346 179.008 83.9934 176.776 84.429 175.8C84.429 175.8 83.1844 177.682 81.1918 177.682C79.2007 177.686 76.9598 176.85 76.9598 176.85Z" fill="#1C2A47"/>
<path d="M82.2472 201.705C81.3005 201.427 79.8364 200.801 78.0152 199.441C74.6594 196.931 75.2168 192.19 75.2168 192.19C76.6504 196.028 81.1932 197.7 81.1932 197.7L81.89 198.023C81.8595 198.023 81.8307 198.013 81.8003 198.002L82.1687 201.059L82.2472 201.705Z" fill="#273B63"/>
<path d="M61.6882 207.899C66.0708 207.393 69.4073 212.732 73.6393 222.402C77.8713 232.071 82.3532 246.852 82.3532 246.852C82.3532 246.852 102.355 244.341 108.828 238.578C108.828 238.578 110.239 232.722 111.236 231.328C112.232 229.934 114.14 228.911 115.386 228.166C116.63 227.422 117.46 226.679 117.46 226.679L112.563 241.275C112.563 241.275 109.243 244.715 107.418 246.667C105.592 248.619 86.0053 260.147 78.2045 257.915C70.4037 255.683 60.6919 232.722 59.6138 227.144C58.5358 221.566 56.045 208.55 61.6882 207.899Z" fill="#B5C4E2"/>
<path d="M61.6881 207.899L61.7041 208.076C61.8899 208.055 62.0725 208.044 62.2535 208.044C63.2498 208.044 64.1901 208.363 65.1127 208.99C66.4967 209.928 67.8374 211.564 69.207 213.838C70.5765 216.109 71.9781 219.016 73.495 222.479C75.6078 227.303 77.7847 233.413 79.433 238.313C80.2579 240.764 80.9499 242.911 81.4352 244.447C81.6787 245.215 81.8693 245.831 82.0007 246.252C82.132 246.676 82.2009 246.905 82.2009 246.905L82.2425 247.042L82.3707 247.026C82.3739 247.026 87.3779 246.398 93.1957 245.047C96.1046 244.372 99.2169 243.516 102.012 242.466C104.807 241.417 107.284 240.175 108.929 238.713L108.97 238.677L108.985 238.62C108.985 238.62 109.007 238.528 109.047 238.367C109.188 237.798 109.557 236.357 109.997 234.907C110.217 234.182 110.455 233.458 110.691 232.839C110.926 232.221 111.163 231.71 111.362 231.432C111.841 230.761 112.554 230.165 113.302 229.648C114.051 229.132 114.836 228.69 115.461 228.317C116.718 227.565 117.555 226.815 117.561 226.812L117.462 226.672L117.311 226.609L112.414 241.205L112.565 241.268L112.456 241.137C112.456 241.137 109.135 244.576 107.308 246.53C107.213 246.631 107.056 246.771 106.846 246.936C106.055 247.562 104.519 248.572 102.539 249.731C99.5678 251.47 95.5921 253.542 91.5907 255.179C87.591 256.817 83.5624 258.015 80.5062 258.013C79.6716 258.013 78.9108 257.924 78.2444 257.734C76.3495 257.195 74.2927 255.365 72.2808 252.823C69.2598 249.012 66.3285 243.615 64.0571 238.652C62.9215 236.17 61.9492 233.799 61.2107 231.787C60.4723 229.776 59.9693 228.123 59.7707 227.097C59.2149 224.226 58.2874 219.387 58.289 215.302C58.289 213.38 58.4956 211.627 59.029 210.339C59.2949 209.693 59.6409 209.165 60.0782 208.78C60.5171 208.394 61.0489 208.146 61.7073 208.071L61.6881 207.899L61.672 207.721C60.9608 207.802 60.365 208.076 59.878 208.505C59.1492 209.148 58.6734 210.125 58.3787 211.299C58.084 212.472 57.967 213.848 57.967 215.311C57.967 219.454 58.9009 224.307 59.4567 227.181C59.7322 228.602 60.5428 231.084 61.7297 234.064C63.5093 238.532 66.1315 244.101 69.0468 248.771C70.5044 251.107 72.0342 253.218 73.5735 254.854C75.1129 256.49 76.6602 257.656 78.1643 258.087C78.8643 258.288 79.6508 258.378 80.5046 258.378C82.7295 258.378 85.4173 257.764 88.2317 256.819C92.4525 255.401 96.9536 253.235 100.559 251.258C102.363 250.27 103.941 249.326 105.148 248.545C105.752 248.156 106.263 247.806 106.665 247.51C107.067 247.214 107.357 246.975 107.529 246.794C108.44 245.82 109.726 244.471 110.785 243.367C111.314 242.815 111.786 242.325 112.126 241.971C112.296 241.795 112.432 241.654 112.526 241.555C112.621 241.456 112.672 241.404 112.672 241.404L112.699 241.376L117.814 226.13L117.359 226.537L117.351 226.544C117.26 226.625 116.465 227.316 115.31 228.007C114.69 228.376 113.899 228.821 113.134 229.349C112.368 229.878 111.628 230.49 111.11 231.213C110.974 231.403 110.84 231.656 110.704 231.956C110.226 233.004 109.722 234.642 109.332 236.023C108.945 237.405 108.674 238.528 108.674 238.53L108.829 238.577L108.73 238.437C107.138 239.854 104.687 241.09 101.911 242.131C97.7465 243.695 92.8497 244.831 88.9974 245.576C87.0704 245.947 85.4045 246.222 84.2208 246.403C83.6281 246.493 83.1572 246.561 82.8336 246.606C82.6718 246.627 82.5469 246.645 82.4636 246.656C82.3787 246.667 82.3354 246.672 82.3354 246.672L82.3531 246.85L82.5052 246.792C82.5036 246.789 78.0234 232.008 73.7834 222.321C71.7571 217.692 69.9342 214.049 68.0921 211.55C67.1711 210.301 66.2436 209.336 65.2793 208.681C64.315 208.026 63.3123 207.683 62.2535 207.685C62.0613 207.685 61.8675 207.696 61.672 207.719L61.6881 207.899Z" fill="#3D5C9B"/>
<path d="M74.8435 261.076C74.8435 261.076 70.0717 279.762 82.0228 289.244C93.974 298.727 124.849 277.531 135.804 263.029C135.804 263.029 152.568 288.873 166.844 296.681L173.65 289.615C173.65 289.615 154.394 258.008 144.269 250.756C134.144 243.504 101.941 257.635 101.941 257.635C101.941 257.635 83.2675 262.655 74.8435 261.076Z" fill="#3D5C9B"/>
<path d="M196.39 292.497C195.725 292.31 195.229 293.055 194.48 293.24C193.734 293.426 184.439 296.959 180.537 297.889L173.649 289.615L166.843 296.681L173.859 302.977C174.584 304.473 176.124 307.342 178.131 309.325C180.953 312.113 183.194 310.906 184.439 309.883C185.683 308.86 187.924 306.072 190.165 304.118C192.406 302.166 195.56 298.54 196.39 296.123C197.22 293.706 197.053 292.683 196.39 292.497Z" fill="#B5C4E2"/>
<path d="M196.389 292.497L196.428 292.323C196.343 292.299 196.258 292.287 196.176 292.289C196.01 292.289 195.854 292.334 195.709 292.398C195.489 292.497 195.289 292.639 195.084 292.766C194.879 292.895 194.672 293.01 194.446 293.066C194.392 293.08 194.31 293.105 194.2 293.141C193.368 293.415 190.858 294.341 188.097 295.307C185.335 296.274 182.322 297.28 180.506 297.713L180.539 297.889L180.656 297.767L173.658 289.362L166.599 296.692L173.759 303.117L173.86 302.977L173.719 303.063C174.449 304.568 175.994 307.45 178.025 309.46C179.341 310.762 180.557 311.223 181.609 311.223C182.849 311.223 183.846 310.592 184.533 310.028C185.172 309.503 186.042 308.548 187.038 307.481C188.033 306.413 189.151 305.231 190.262 304.262C191.392 303.278 192.745 301.879 193.924 300.417C195.103 298.954 196.107 297.438 196.538 296.189C196.934 295.036 197.11 294.191 197.11 293.573C197.11 293.229 197.054 292.951 196.937 292.737C196.82 292.522 196.636 292.382 196.428 292.325L196.389 292.497L196.351 292.671C196.492 292.712 196.59 292.787 196.665 292.922C196.74 293.058 196.791 293.268 196.791 293.57C196.793 294.11 196.63 294.926 196.24 296.057C195.84 297.225 194.853 298.73 193.687 300.173C192.521 301.617 191.177 303.006 190.067 303.975C188.938 304.958 187.815 306.147 186.817 307.217C185.822 308.286 184.949 309.239 184.344 309.736C183.684 310.278 182.75 310.863 181.609 310.861C180.642 310.859 179.511 310.446 178.236 309.187C176.256 307.231 174.718 304.376 173.999 302.889L173.983 302.857L167.087 296.668L173.64 289.866L180.482 298.084L180.57 298.063C182.534 297.594 185.832 296.478 188.739 295.456C190.192 294.944 191.547 294.456 192.583 294.085C193.102 293.898 193.541 293.742 193.875 293.625C194.041 293.568 194.181 293.52 194.289 293.484C194.398 293.448 194.477 293.423 194.515 293.414C194.88 293.322 195.178 293.116 195.446 292.945C195.579 292.859 195.705 292.782 195.827 292.728C195.949 292.674 196.063 292.644 196.176 292.644C196.232 292.644 196.29 292.651 196.351 292.669L196.389 292.497Z" fill="#3D5C9B"/>
<path d="M129.924 294.218C129.924 294.218 128.509 300.196 127.662 301.775C126.813 303.354 123.515 307.414 124.08 309.783C124.646 312.151 127.012 313.096 130.782 314.112C134.553 315.128 135.107 317.559 137.464 318.574C139.82 319.59 142.53 320.022 143.19 319.457C143.85 318.894 144.85 319.364 146.054 317.876C147.315 316.317 144.643 315.088 143.232 313.739C142.319 312.867 139.918 310.233 137.183 307.525C134.449 304.818 137.297 297.609 137.297 297.609L129.924 294.218Z" fill="#B5C4E2"/>
<path d="M129.924 294.217L129.768 294.171C129.768 294.171 129.746 294.264 129.706 294.429C129.565 295.011 129.201 296.487 128.78 297.991C128.57 298.743 128.344 299.5 128.128 300.153C127.912 300.806 127.699 301.357 127.524 301.682C127.335 302.033 127.012 302.528 126.632 303.104C126.063 303.969 125.375 305.021 124.824 306.086C124.274 307.154 123.856 308.236 123.854 309.198C123.854 309.415 123.877 309.626 123.925 309.829C124.072 310.448 124.341 310.981 124.718 311.437C125.283 312.122 126.084 312.641 127.095 313.087C128.106 313.532 129.328 313.904 130.744 314.286C132.602 314.788 133.651 315.626 134.548 316.479C134.997 316.906 135.405 317.338 135.855 317.731C136.305 318.124 136.797 318.477 137.404 318.739C139.067 319.455 140.891 319.882 142.096 319.884C142.357 319.884 142.589 319.864 142.79 319.819C142.988 319.775 143.156 319.708 143.286 319.597C143.427 319.477 143.589 319.409 143.784 319.353C144.077 319.269 144.439 319.22 144.848 319.046C145.256 318.872 145.705 318.571 146.171 317.995C146.419 317.69 146.543 317.369 146.541 317.051C146.541 316.696 146.392 316.371 146.174 316.073C145.846 315.626 145.348 315.215 144.825 314.808C144.303 314.403 143.755 314.003 143.334 313.599C142.884 313.168 142.054 312.291 140.999 311.186C139.943 310.08 138.657 308.744 137.289 307.387C136.869 306.973 136.589 306.445 136.41 305.842C136.23 305.241 136.156 304.565 136.156 303.867C136.156 302.412 136.477 300.858 136.799 299.676C136.961 299.083 137.121 298.583 137.242 298.231C137.303 298.055 137.353 297.917 137.388 297.822C137.406 297.775 137.42 297.74 137.428 297.714C137.438 297.691 137.443 297.679 137.443 297.679L137.51 297.51L129.816 293.968L129.77 294.165L129.924 294.217L129.863 294.383L137.236 297.775L137.297 297.61L137.151 297.539C137.15 297.544 136.823 298.371 136.494 299.575C136.168 300.779 135.838 302.358 135.838 303.872C135.838 304.599 135.913 305.311 136.107 305.963C136.299 306.612 136.611 307.201 137.079 307.664C138.444 309.015 139.727 310.349 140.782 311.455C141.838 312.56 142.666 313.436 143.129 313.879C143.722 314.444 144.511 314.975 145.144 315.51C145.461 315.777 145.738 316.044 145.929 316.305C146.121 316.568 146.224 316.816 146.222 317.055C146.222 317.268 146.145 317.494 145.934 317.756C145.351 318.474 144.843 318.703 144.377 318.84C144.145 318.906 143.922 318.947 143.706 319.008C143.491 319.069 143.281 319.154 143.091 319.315C143.022 319.374 142.897 319.434 142.725 319.471C142.556 319.509 142.341 319.529 142.094 319.529C140.954 319.531 139.145 319.109 137.518 318.407C136.948 318.162 136.486 317.83 136.051 317.451C135.399 316.882 134.809 316.199 134.023 315.558C133.236 314.918 132.25 314.324 130.816 313.938C128.934 313.432 127.409 312.942 126.299 312.296C125.743 311.973 125.293 311.613 124.949 311.195C124.604 310.777 124.365 310.301 124.229 309.738C124.189 309.569 124.17 309.39 124.17 309.199C124.17 308.638 124.34 307.985 124.615 307.305C125.029 306.282 125.673 305.198 126.289 304.235C126.906 303.271 127.491 302.432 127.793 301.868C128.018 301.45 128.264 300.777 128.517 299.99C129.277 297.63 130.071 294.268 130.073 294.264L129.924 294.217L129.863 294.383L129.924 294.217Z" fill="#3D5C9B"/>
<path d="M142.234 209.569L134.396 234.949L132.823 239.99C132.714 240.326 132.464 240.582 132.155 240.67L112.147 246.529C111.738 246.651 111.36 246.462 111.151 246.137C110.961 245.87 110.891 245.502 111.002 245.133L112.067 241.742L121.817 209.713C121.947 209.289 122.285 208.999 122.684 208.988L139.704 208.218L141.289 208.152C141.965 208.119 142.453 208.855 142.234 209.569Z" fill="#6C8AC5"/>
<path d="M142.234 209.569L134.396 234.949L132.823 239.99C132.714 240.326 132.464 240.583 132.155 240.67L112.147 246.529C111.738 246.651 111.36 246.462 111.15 246.138C114.785 242.779 124.726 233.197 131.407 222.956C136.167 215.661 138.548 210.918 139.703 208.22L141.287 208.154C141.964 208.119 142.453 208.855 142.234 209.569Z" fill="#486DB7"/>
<path d="M138.179 224.278C138.17 224.26 138.155 224.246 138.146 224.228C138.381 223.961 138.69 223.501 138.567 223.024C138.377 222.283 137.399 221.815 136.022 221.854C134.644 221.896 133.923 222.416 134.212 222.735C134.5 223.055 135.267 223.455 136.121 223.322L136.315 223.584C136.051 223.609 135.77 223.656 135.472 223.738C134.135 224.104 133.528 224.784 133.869 225.028C134.212 225.272 135.037 225.482 135.846 225.15L136.036 225.317C135.831 225.346 135.618 225.385 135.396 225.446C134.058 225.812 133.451 226.492 133.792 226.736C134.135 226.98 134.96 227.19 135.769 226.858L136.216 227.253C135.453 227.524 134.607 227.926 134.756 228.236C134.974 228.69 136.219 228.794 136.219 228.794L135.69 230.643C135.69 230.643 137.34 229.771 137.899 228.83C138.223 228.288 138.125 227.718 137.866 227.352C138.051 227.05 138.333 226.471 138.101 225.988C138.051 225.886 137.981 225.796 137.899 225.714C138.077 225.441 138.429 224.8 138.179 224.278Z" fill="#B5C4E2"/>
<path d="M138.179 224.278L138.32 224.192C138.306 224.164 138.293 224.146 138.285 224.137L138.279 224.128L138.277 224.129L138.279 224.128L138.277 224.129L138.279 224.128L138.234 224.164L138.28 224.131L138.279 224.128L138.234 224.164L138.28 224.131L138.144 224.226L138.258 224.352C138.364 224.232 138.484 224.076 138.582 223.889C138.678 223.702 138.753 223.485 138.753 223.245C138.753 223.155 138.742 223.064 138.719 222.972C138.665 222.76 138.557 222.572 138.41 222.411C138.187 222.168 137.878 221.985 137.503 221.862C137.127 221.738 136.683 221.671 136.187 221.671C136.131 221.671 136.075 221.671 136.019 221.673C135.416 221.691 134.933 221.797 134.588 221.946C134.415 222.021 134.277 222.106 134.173 222.204C134.122 222.254 134.077 222.308 134.045 222.369C134.013 222.43 133.991 222.504 133.991 222.579C133.989 222.685 134.036 222.787 134.101 222.859C134.249 223.021 134.478 223.182 134.768 223.309C135.056 223.435 135.405 223.525 135.785 223.525C135.903 223.525 136.023 223.516 136.145 223.498L136.123 223.32L135.999 223.435L136.193 223.697L136.317 223.582L136.304 223.403C136.031 223.428 135.743 223.476 135.436 223.561C134.876 223.713 134.438 223.921 134.13 224.137C133.976 224.244 133.855 224.356 133.766 224.47C133.722 224.528 133.686 224.587 133.659 224.65C133.633 224.713 133.616 224.779 133.616 224.851C133.616 224.915 133.632 224.982 133.662 225.039C133.693 225.097 133.736 225.141 133.784 225.177C133.911 225.267 134.08 225.346 134.281 225.403C134.481 225.461 134.715 225.498 134.965 225.498C135.259 225.498 135.581 225.446 135.9 225.315L135.846 225.147L135.746 225.289L135.937 225.455L136.036 225.314L136.017 225.136C135.807 225.165 135.589 225.204 135.357 225.269C134.798 225.421 134.359 225.629 134.052 225.845C133.898 225.952 133.776 226.064 133.688 226.178C133.643 226.236 133.608 226.295 133.581 226.358C133.555 226.421 133.537 226.487 133.537 226.559C133.537 226.623 133.553 226.69 133.584 226.747C133.614 226.805 133.657 226.85 133.706 226.885C133.832 226.975 134.002 227.054 134.202 227.111C134.402 227.169 134.636 227.207 134.886 227.207C135.181 227.207 135.503 227.155 135.822 227.024L135.767 226.855L135.668 226.997L136.115 227.391L136.214 227.25L136.166 227.079C135.809 227.207 135.436 227.361 135.141 227.526C134.993 227.61 134.865 227.695 134.766 227.79C134.716 227.838 134.673 227.887 134.638 227.946C134.604 228.005 134.577 228.077 134.577 228.158C134.577 228.211 134.59 228.269 134.614 228.317C134.655 228.403 134.716 228.473 134.784 228.529C134.902 228.628 135.048 228.698 135.2 228.755C135.658 228.924 136.198 228.967 136.204 228.969L136.216 228.789L136.063 228.733L135.421 230.974L135.754 230.799C135.757 230.797 136.174 230.576 136.666 230.235C137.156 229.893 137.721 229.437 138.029 228.924C138.189 228.655 138.261 228.371 138.26 228.104C138.26 227.77 138.152 227.467 137.987 227.235L137.862 227.347L137.994 227.449C138.066 227.332 138.152 227.174 138.221 226.993C138.29 226.812 138.344 226.604 138.344 226.385C138.344 226.225 138.314 226.056 138.239 225.899C138.176 225.771 138.093 225.667 138.003 225.577L137.896 225.71L138.026 225.816C138.098 225.707 138.194 225.543 138.276 225.348C138.356 225.152 138.423 224.923 138.423 224.677C138.423 224.515 138.392 224.348 138.317 224.19L138.179 224.278L138.038 224.363C138.087 224.463 138.106 224.567 138.106 224.678C138.106 224.847 138.056 225.032 137.987 225.199C137.918 225.364 137.832 225.511 137.769 225.606L137.683 225.737L137.79 225.847C137.864 225.92 137.922 225.994 137.958 226.073C138.006 226.173 138.026 226.277 138.026 226.388C138.026 226.541 137.986 226.704 137.928 226.855C137.87 227.006 137.795 227.146 137.731 227.248L137.664 227.357L137.737 227.461C137.861 227.634 137.941 227.861 137.941 228.105C137.941 228.303 137.891 228.513 137.763 228.726C137.511 229.153 136.97 229.605 136.498 229.932C136.26 230.097 136.039 230.233 135.879 230.329C135.799 230.375 135.733 230.413 135.689 230.438C135.666 230.451 135.649 230.46 135.637 230.467L135.62 230.476L135.689 230.637L135.841 230.693L136.432 228.628L136.23 228.611L136.217 228.61C136.153 228.604 135.847 228.57 135.541 228.489C135.389 228.45 135.235 228.396 135.117 228.333C134.997 228.272 134.918 228.195 134.896 228.147L134.876 228.158H134.897L134.896 228.147L134.876 228.158H134.897H134.881L134.897 228.161V228.158H134.881L134.897 228.161L134.901 228.154C134.909 228.131 134.957 228.07 135.038 228.007C135.16 227.91 135.351 227.804 135.567 227.702C135.783 227.601 136.027 227.504 136.264 227.42L136.552 227.318L135.796 226.652L135.713 226.686C135.432 226.801 135.149 226.846 134.886 226.846C134.663 226.846 134.457 226.814 134.282 226.763C134.108 226.713 133.965 226.645 133.877 226.582C133.863 226.571 133.859 226.564 133.858 226.564V226.559C133.858 226.553 133.859 226.537 133.871 226.512C133.89 226.467 133.936 226.397 134.013 226.322C134.245 226.091 134.734 225.809 135.432 225.619C135.649 225.559 135.854 225.522 136.055 225.493L136.437 225.439L135.874 224.944L135.791 224.978C135.511 225.093 135.227 225.138 134.965 225.138C134.742 225.138 134.535 225.106 134.361 225.055C134.186 225.005 134.044 224.937 133.955 224.874C133.941 224.863 133.938 224.856 133.936 224.856V224.851C133.936 224.845 133.938 224.829 133.949 224.804C133.968 224.759 134.015 224.689 134.092 224.614C134.324 224.382 134.812 224.101 135.511 223.911C135.801 223.832 136.073 223.785 136.329 223.762L136.635 223.733L136.188 223.128L136.1 223.143C135.993 223.159 135.887 223.166 135.783 223.166C135.45 223.166 135.138 223.087 134.883 222.976C134.628 222.865 134.428 222.719 134.325 222.604C134.306 222.581 134.311 222.581 134.309 222.581C134.309 222.581 134.309 222.572 134.319 222.554C134.335 222.522 134.386 222.463 134.471 222.405C134.599 222.317 134.801 222.228 135.064 222.159C135.327 222.091 135.65 222.043 136.027 222.032C136.081 222.03 136.134 222.03 136.187 222.03C136.815 222.03 137.343 222.143 137.726 222.333C137.918 222.429 138.072 222.542 138.186 222.667C138.3 222.793 138.375 222.927 138.412 223.073C138.426 223.132 138.434 223.189 138.434 223.247C138.434 223.401 138.384 223.561 138.306 223.71C138.228 223.859 138.123 223.997 138.03 224.103L137.941 224.203L138.008 224.323C138.022 224.348 138.034 224.361 138.038 224.368L138.042 224.372L138.093 224.329L138.037 224.363L138.042 224.372L138.093 224.329L138.037 224.363L138.179 224.278Z" fill="#3D5C9B"/>
<path d="M132.346 226.58C131.787 228.653 130.273 229.975 128.964 229.532C127.656 229.089 127.05 227.05 127.609 224.976C128.168 222.904 129.682 221.582 130.991 222.025C132.299 222.468 132.905 224.508 132.346 226.58Z" fill="#486DB7"/>
<path d="M191.044 310.915C186.961 330.672 168.646 344.371 135.969 346.859C69.9886 351.879 33.6371 347.417 20.6896 312.275C17.7615 304.332 16.6258 294.069 16.786 282.857C21.766 285.089 31.0373 291.19 41.1063 307.533C56.0448 331.797 86.1718 344.069 122.525 338.769C157.899 333.618 179.372 327.928 191.044 310.915Z" fill="#65BAA6"/>
</g>
<defs>
<clipPath id="clip0_721_5597">
<rect width="420.488" height="333" fill="white" transform="translate(0.5)"/>
</clipPath>
</defs>
</svg>
