<svg width="258" height="44" viewBox="0 0 258 44" fill="none" xmlns="http://www.w3.org/2000/svg">
<path d="M41.5672 18.6142C40.8929 15.0882 39.3939 11.7706 37.1919 8.93073C39.6787 5.96428 42.6642 3.45182 46.0148 1.50574C58.22 29.3495 35.8473 42.1679 35.8473 42.1679H35.4646C40.8535 36.0113 42.9636 27.9057 41.5672 18.6142Z" fill="#FF93C7"/>
<path d="M6.69944 27.74C11.9377 27.9229 17.0587 29.3362 21.6456 31.865C20.9737 30.5324 20.4567 29.1277 20.1045 27.6781C18.0358 19.1084 20.9009 8.43497 23.9419 0.308716C28.2964 1.81434 32.9716 5.68153 36.1884 10.1675C38.1324 12.7218 39.4565 15.6903 40.0568 18.8403C41.6497 29.39 38.464 37.0316 33.2923 42.2806L33.0647 42.5178C33.0647 42.5178 22.3076 44.3431 13.8984 40.4244C4.16531 35.8662 1.73462 28.2659 1.73462 28.2659C3.35708 27.8619 5.02804 27.6849 6.69944 27.74Z" fill="#419FB9"/>
<path d="M36.1887 10.1675L36.0128 9.92004C30.9242 16.8899 28.2419 25.318 28.3691 33.9379C28.3656 36.9521 28.6741 39.9586 29.2896 42.9097C30.5536 42.8557 31.8138 42.7352 33.065 42.5488C33.1477 42.4766 33.2201 42.3838 33.3029 42.3013C38.4746 37.0316 41.65 29.39 40.0571 18.8404C39.4567 15.6904 38.1326 12.7218 36.1887 10.1675Z" fill="#265E6C"/>
<path d="M76.6413 32.4368L75.3802 19.3933L71.0396 32.4368H66.8954L62.3586 19.2252L61.266 32.4368H57.1218L59.3625 12.6343C59.9514 12.3278 60.9032 12.047 61.5754 12.047C63.1438 12.047 64.3197 12.5216 64.7956 13.9177L69.4732 27.8273L74.2618 12.6897C74.8507 12.2981 75.634 12.047 76.3895 12.047C77.9857 12.047 78.7689 12.6046 79.0227 14.5881L81.2634 32.4348H76.6413V32.4368Z" fill="#419FB9"/>
<path d="M94.535 28.3597L96.2423 31.0689C94.5053 32.1585 92.5739 32.7161 90.2223 32.7161C85.7687 32.7161 83.1375 30.1177 83.1375 25.7059C83.1375 20.9026 85.9095 18.0254 90.6426 18.0254C94.1999 18.0254 96.272 19.813 96.272 22.7456C96.272 25.5675 93.6685 27.2424 89.326 27.2424C88.7093 27.2424 88.0946 27.1871 87.478 27.1297C87.7853 28.6109 88.7093 29.475 90.5296 29.475C92.1258 29.477 93.4127 29.0855 94.535 28.3597ZM87.3927 24.7014C88.0371 24.7568 88.6816 24.7844 89.2685 24.7844C91.061 24.7844 92.0683 24.1141 92.0683 22.9414C92.0683 21.9922 91.3961 21.3772 90.2203 21.3772C88.6518 21.3772 87.6168 22.6052 87.3927 24.7014Z" fill="#419FB9"/>
<path d="M99.4333 39.1406L97.5 36.0399C98.3407 35.7334 98.9554 34.8119 98.9554 33.052V18.3059H103.296V33.8351C103.298 36.8784 101.618 38.3022 99.4333 39.1406ZM101.115 16.1267C102.6 16.1267 103.524 15.2883 103.524 13.8091C103.524 12.3576 102.6 11.5469 101.115 11.5469C99.6296 11.5469 98.7056 12.3576 98.7056 13.8091C98.7056 15.2883 99.6296 16.1267 101.115 16.1267Z" fill="#419FB9"/>
<path d="M105.478 25.3717C105.478 20.7642 108.25 18.0254 113.011 18.0254C117.772 18.0254 120.574 20.7622 120.574 25.3717C120.574 29.9812 117.774 32.7181 113.011 32.7181C108.248 32.7181 105.478 29.9793 105.478 25.3717ZM116.176 25.3717C116.176 22.9137 115 21.4346 113.039 21.4346C111.078 21.4346 109.902 22.9157 109.902 25.3717C109.902 27.8297 111.078 29.2812 113.039 29.2812C115 29.2812 116.176 27.8297 116.176 25.3717Z" fill="#419FB9"/>
<path d="M132.944 18.5L131.682 22.3264C131.207 22.0199 130.59 21.8241 129.918 21.8241C128.125 21.8241 127.005 23.0245 127.005 26.5167V32.4373H122.664V18.6127C123.42 18.2765 124.233 18.0254 124.988 18.0254C126.164 18.0254 126.864 19.0299 126.864 20.4834C127.901 18.6681 129.329 18.0254 130.784 18.0254C131.542 18.0254 132.299 18.2212 132.944 18.5Z" fill="#419FB9"/>
<path d="M141.684 32.7188C137.092 32.7188 134.345 29.982 134.345 25.3448C134.345 20.7372 137.371 18.0281 141.319 18.0281C143.056 18.0281 145.856 18.7261 146.752 21.9949L143.588 23.2526C143.223 22.163 142.551 21.4373 141.543 21.4373C139.779 21.4373 138.743 22.8907 138.743 25.3467C138.743 27.8324 140.005 29.2839 142.047 29.2839C143.364 29.2839 144.876 28.8093 145.856 28.0836L147.228 31.0993C145.689 32.2165 143.617 32.7188 141.684 32.7188Z" fill="#265E6C"/>
<path d="M147.811 25.3698C147.811 20.7622 150.583 18.0234 155.344 18.0234C160.105 18.0234 162.907 20.7603 162.907 25.3698C162.907 29.9793 160.105 32.7161 155.344 32.7161C150.583 32.7161 147.811 29.9773 147.811 25.3698ZM158.509 25.3698C158.509 22.9118 157.333 21.4326 155.372 21.4326C153.411 21.4326 152.235 22.9137 152.235 25.3698C152.235 27.8278 153.411 29.2793 155.372 29.2793C157.333 29.2793 158.509 27.8278 158.509 25.3698Z" fill="#265E6C"/>
<path d="M178.748 23.331V32.4353H174.407V24.0844C174.407 22.4649 173.707 21.4306 172.391 21.4306C170.515 21.4306 169.339 22.4352 169.339 25.3975V32.4353H164.999V18.6107C165.754 18.2746 166.567 18.0234 167.322 18.0234C168.443 18.0234 169.143 18.9449 169.198 20.3134C170.402 18.6088 172.056 18.0234 173.791 18.0234C176.928 18.0234 178.748 19.9792 178.748 23.331Z" fill="#265E6C"/>
<path d="M195.509 14.0034L193.606 17.0764C192.402 16.238 190.748 15.6249 189.096 15.6249C187.556 15.6249 186.632 16.2953 186.632 17.3572C186.632 18.781 188.256 19.3406 190.217 20.0387C192.878 20.9879 196.015 22.1902 196.015 26.2104C196.015 30.3433 193.157 32.7183 188.313 32.7183C185.652 32.7183 183.188 31.9648 181.395 30.6241L182.823 27.4404C184.195 28.5023 186.184 29.145 188.535 29.145C190.356 29.145 191.42 28.3915 191.42 27.1339C191.42 25.542 189.796 24.9547 187.919 24.314C185.258 23.3925 182.037 22.2475 182.037 18.0019C182.037 14.1478 184.641 12.0536 189.011 12.0536C191.224 12.0497 193.576 12.6923 195.509 14.0034Z" fill="#FF93C7"/>
<path d="M210.574 23.3351V32.133C209.819 32.4672 209.034 32.7203 208.25 32.7203C207.158 32.7203 206.458 31.8265 206.375 30.5411C205.227 32.1607 203.686 32.7203 202.145 32.7203C199.318 32.7203 197.608 31.073 197.608 28.3916C197.608 25.4313 200.101 23.699 204.499 23.699C205.058 23.699 205.647 23.699 206.236 23.7267C206.153 22.1902 205.591 21.2687 203.771 21.2687C202.54 21.2687 201.279 21.6602 200.158 22.3859L198.421 19.7045C200.214 18.6149 202.147 18.0295 204.499 18.0295C208.334 18.0276 210.574 19.9833 210.574 23.3351ZM206.232 26.2104C205.643 26.1827 205.112 26.1827 204.608 26.1827C202.76 26.1827 201.723 26.8531 201.723 27.998C201.723 28.8919 202.226 29.5346 203.347 29.5346C204.832 29.5346 206.232 28.613 206.232 26.2104Z" fill="#FF93C7"/>
<path d="M213.624 28.6127V11.2405C214.38 10.9063 215.193 10.6532 215.948 10.6532C217.237 10.6532 217.965 11.4917 217.965 12.6643V28.2488C217.965 28.9192 218.33 29.2831 218.972 29.2831C219.42 29.2831 219.841 29.2 220.176 29.0873L220.737 31.8241C219.785 32.4391 218.804 32.718 217.6 32.718C215.109 32.718 213.624 31.2388 213.624 28.6127Z" fill="#FF93C7"/>
<path d="M237.419 20.0383V32.1325C236.663 32.4667 235.85 32.7198 235.095 32.7198C233.975 32.7198 233.302 31.7983 233.219 30.4853C232.099 32.1325 230.53 32.7198 228.906 32.7198C225.769 32.7198 223.949 30.7641 223.949 27.4123V18.6145C224.705 18.2784 225.518 18.0272 226.273 18.0272C227.562 18.0272 228.29 18.8657 228.29 20.0383V26.6292C228.29 28.2765 228.99 29.283 230.306 29.283C232.043 29.283 233.078 28.2784 233.078 25.3735V18.6145C233.834 18.2784 234.647 18.0272 235.402 18.0272C236.691 18.0272 237.419 18.8657 237.419 20.0383Z" fill="#FF93C7"/>
<path d="M254.278 12.664V32.1303C253.522 32.4645 252.709 32.7176 251.954 32.7176C250.861 32.7176 250.161 31.7961 250.078 30.5107C248.874 32.158 247.165 32.7176 245.458 32.7176C242.18 32.7176 240.025 30.1765 240.025 25.8458C240.025 20.9021 242.937 18.0249 247.867 18.0249C248.398 18.0249 249.128 18.0526 249.939 18.0803V11.2382C250.695 10.904 251.507 10.6509 252.263 10.6509C253.548 10.6529 254.278 11.4913 254.278 12.664ZM249.935 21.266C249.291 21.2383 248.731 21.2383 248.256 21.2383C245.904 21.2383 244.419 22.9429 244.419 25.8458C244.419 28.025 245.37 29.3084 247.08 29.3084C248.761 29.3084 249.937 28.3315 249.937 25.3693V21.266H249.935Z" fill="#FF93C7"/>
</svg>
