<svg width="49" height="47" viewBox="0 0 49 47" fill="none" xmlns="http://www.w3.org/2000/svg">
<path d="M41.1181 34.416C44.8921 30.32 44.5121 25.06 44.5001 25V19V9C44.5001 7.896 43.6061 7 42.5001 7H30.5001C28.2941 7 26.5001 8.794 26.5001 11V25C26.5001 26.104 27.3941 27 28.5001 27H30.5001H34.6561C34.6141 27.804 34.4101 28.824 33.7981 29.792C32.7821 31.394 30.8681 32.488 28.1061 33.04L26.5001 33.36V39H28.5001C34.0661 39 38.3121 37.458 41.1181 34.416ZM19.1041 34.416C22.8801 30.32 22.4981 25.06 22.4861 25V19V9C22.4861 7.896 21.5921 7 20.4861 7H8.48608C6.28008 7 4.48608 8.794 4.48608 11V25C4.48608 26.104 5.38008 27 6.48608 27H8.48608H12.6421C12.6001 27.804 12.3961 28.824 11.7841 29.792C10.7681 31.394 8.85408 32.488 6.09208 33.04L4.48608 33.36V39H6.48608C12.0521 39 16.2981 37.458 19.1041 34.416Z" fill="#486DB7"/>
</svg>
